<svg width="50" height="50" fill="currentColor" viewBox="0 0 24 24" xmlns="http://www.w3.org/2000/svg">
   <path fill-rule="evenodd" d="M.05 7.2A7.15 7.15 0 0 1 7.2.05h9.6a7.15 7.15 0 0 1 7.15 7.15v9.6a7.15 7.15 0 0 1-7.15 7.15H7.2A7.15 7.15 0 0 1 .05 16.8V7.2ZM7.2 1.55A5.65 5.65 0 0 0 1.55 7.2v9.6a5.65 5.65 0 0 0 5.65 5.65h9.6a5.65 5.65 0 0 0 5.65-5.65V7.2a5.65 5.65 0 0 0-5.65-5.65H7.2Zm12 4.8h-1.6v-1.5h1.6v1.5ZM6.45 12a5.55 5.55 0 1 1 11.1 0 5.55 5.55 0 0 1-11.1 0ZM12 7.95a4.05 4.05 0 1 0 0 8.1 4.05 4.05 0 0 0 0-8.1Z" clip-rule="evenodd"></path>
</svg>