<svg width="50" height="50" fill="currentColor" viewBox="0 0 24 24" xmlns="http://www.w3.org/2000/svg">
   <path fill-rule="evenodd" d="M12 1.55c-4.887 0-8.85 3.961-8.85 8.844 0 3.734 1.868 6.752 3.98 8.863a15.842 15.842 0 0 0 3.076 2.408c.461.272.87.472 1.197.601.35.138.543.17.597.17.054 0 .247-.032.597-.17.328-.13.736-.33 1.197-.601a15.842 15.842 0 0 0 3.076-2.408c2.113-2.111 3.98-5.13 3.98-8.863 0-4.883-3.963-8.844-8.85-8.844ZM1.65 10.394C1.65 4.682 6.285.05 12 .05s10.35 4.632 10.35 10.344c0 4.26-2.132 7.638-4.42 9.924a17.334 17.334 0 0 1-3.374 2.64c-.514.302-.993.54-1.409.703-.394.156-.801.274-1.147.274s-.753-.118-1.147-.274a10.265 10.265 0 0 1-1.409-.704 17.334 17.334 0 0 1-3.374-2.639c-2.288-2.286-4.42-5.663-4.42-9.924Zm6.4 0a3.95 3.95 0 0 1 7.9 0 3.95 3.95 0 0 1-7.9 0ZM12 7.946a2.45 2.45 0 0 0-2.45 2.448 2.45 2.45 0 0 0 4.9 0A2.45 2.45 0 0 0 12 7.946Z" clip-rule="evenodd"></path>
</svg>