<svg width="50" height="50" fill="currentColor" viewBox="0 0 24 24" xmlns="http://www.w3.org/2000/svg">
   <path fill-rule="evenodd" d="M23.41 1.691a.75.75 0 0 1 .504.66c.087 1.322.025 2.326-.282 3.189-.276.779-.729 1.381-1.314 1.974V8.3c0 7.758-6.28 14.05-14.03 14.05h-.073c-2.535 0-5.246 0-7.831-1.726A.75.75 0 0 1 .8 19.25c2.77 0 5.14-1.204 6.518-2.198-3.074-1.277-5.237-3.216-6.306-5.65-1.21-2.754-.955-5.992.714-9.337a.75.75 0 0 1 1.374.072C3.797 4 6.387 7.675 11.233 8.023v-.757c0-3.1 2.51-5.616 5.608-5.616 1.453 0 2.775.567 3.755 1.491a4.139 4.139 0 0 0 2.012-1.243.75.75 0 0 1 .803-.207ZM11.234 9.527C6.668 9.245 3.82 6.419 2.446 4.169c-.92 2.486-.89 4.74-.06 6.63.99 2.252 3.183 4.135 6.64 5.29a.75.75 0 0 1 .293 1.24c-.89.892-3.02 2.428-5.81 3.096 1.496.418 3.069.425 4.78.425 6.92 0 12.53-5.618 12.53-12.55V7.134a.75.75 0 0 1 .443-.684c.491-.5.782-.916.958-1.412.104-.293.175-.635.208-1.063a5.368 5.368 0 0 1-1.969.724l-.398.06-.27-.299a3.962 3.962 0 0 0-2.95-1.31 4.112 4.112 0 0 0-4.107 4.116V9.6h-1.5v-.073Z" clip-rule="evenodd"></path>
</svg>